<mxfile host="app.diagrams.net" modified="2024-05-20T20:02:47.089Z" agent="Mozilla/5.0 (Windows NT 10.0; Win64; x64) AppleWebKit/537.36 (KHTML, like Gecko) Chrome/122.0.0.0 YaBrowser/24.4.0.0 Safari/537.36" etag="lKEeFWdezOEVm7dwtjyM" version="24.4.4" type="github">
  <diagram name="Страница — 1" id="tyME_XcxKICsSEQDu0IO">
    <mxGraphModel dx="1820" dy="1000" grid="1" gridSize="10" guides="1" tooltips="1" connect="1" arrows="1" fold="1" page="1" pageScale="1" pageWidth="827" pageHeight="1169" math="0" shadow="0">
      <root>
        <mxCell id="0" />
        <mxCell id="1" parent="0" />
        <mxCell id="a6t6iBsAkW9Ld2z77R7q-1" value="" style="rounded=1;whiteSpace=wrap;html=1;fillColor=none;" vertex="1" parent="1">
          <mxGeometry x="110" y="130" width="290" height="270" as="geometry" />
        </mxCell>
        <mxCell id="a6t6iBsAkW9Ld2z77R7q-2" value="&lt;font style=&quot;font-size: 16px;&quot;&gt;Слой Presentation&lt;/font&gt;" style="text;html=1;align=center;verticalAlign=middle;whiteSpace=wrap;rounded=0;" vertex="1" parent="1">
          <mxGeometry x="172.5" y="140" width="165" height="30" as="geometry" />
        </mxCell>
        <mxCell id="a6t6iBsAkW9Ld2z77R7q-3" value="&lt;div style=&quot;&quot;&gt;&lt;pre style=&quot;font-family: &amp;quot;JetBrains Mono&amp;quot;, monospace;&quot;&gt;&lt;span style=&quot;background-color: rgb(255, 255, 255);&quot;&gt;ActualCostAllocationController&lt;/span&gt;&lt;/pre&gt;&lt;/div&gt;" style="rounded=1;whiteSpace=wrap;html=1;" vertex="1" parent="1">
          <mxGeometry x="150" y="310" width="220" height="60" as="geometry" />
        </mxCell>
        <mxCell id="a6t6iBsAkW9Ld2z77R7q-6" value="Extends" style="endArrow=block;endSize=16;endFill=0;html=1;rounded=0;" edge="1" parent="1">
          <mxGeometry x="-0.1429" y="15" width="160" relative="1" as="geometry">
            <mxPoint x="260" y="310" as="sourcePoint" />
            <mxPoint x="260" y="240" as="targetPoint" />
            <mxPoint as="offset" />
          </mxGeometry>
        </mxCell>
        <mxCell id="a6t6iBsAkW9Ld2z77R7q-7" value="&lt;div style=&quot;&quot;&gt;&lt;pre style=&quot;font-family: &amp;quot;JetBrains Mono&amp;quot;, monospace;&quot;&gt;&lt;span style=&quot;background-color: rgb(255, 255, 255);&quot;&gt;AbstructCrudController&lt;/span&gt;&lt;/pre&gt;&lt;/div&gt;" style="rounded=1;whiteSpace=wrap;html=1;" vertex="1" parent="1">
          <mxGeometry x="145" y="180" width="220" height="60" as="geometry" />
        </mxCell>
        <mxCell id="a6t6iBsAkW9Ld2z77R7q-10" value="" style="rounded=1;whiteSpace=wrap;html=1;fillColor=none;" vertex="1" parent="1">
          <mxGeometry x="20" y="480" width="540" height="270" as="geometry" />
        </mxCell>
        <mxCell id="a6t6iBsAkW9Ld2z77R7q-11" value="&lt;font style=&quot;font-size: 16px;&quot;&gt;Слой Domain&lt;/font&gt;" style="text;html=1;align=center;verticalAlign=middle;whiteSpace=wrap;rounded=0;" vertex="1" parent="1">
          <mxGeometry x="205" y="490" width="165" height="30" as="geometry" />
        </mxCell>
        <mxCell id="a6t6iBsAkW9Ld2z77R7q-12" value="&lt;div style=&quot;&quot;&gt;&lt;pre style=&quot;font-family: &amp;quot;JetBrains Mono&amp;quot;, monospace;&quot;&gt;&lt;span style=&quot;background-color: rgb(255, 255, 255);&quot;&gt;ActualCostAllocationService&lt;/span&gt;&lt;/pre&gt;&lt;/div&gt;" style="rounded=1;whiteSpace=wrap;html=1;" vertex="1" parent="1">
          <mxGeometry x="50" y="540" width="220" height="60" as="geometry" />
        </mxCell>
        <mxCell id="a6t6iBsAkW9Ld2z77R7q-13" value="&lt;div style=&quot;&quot;&gt;&lt;pre style=&quot;font-family: &amp;quot;JetBrains Mono&amp;quot;, monospace;&quot;&gt;&lt;span style=&quot;background-color: rgb(255, 255, 255);&quot;&gt;IActualCostAllocationService&lt;/span&gt;&lt;/pre&gt;&lt;/div&gt;" style="rounded=1;whiteSpace=wrap;html=1;" vertex="1" parent="1">
          <mxGeometry x="50" y="660" width="220" height="60" as="geometry" />
        </mxCell>
        <mxCell id="a6t6iBsAkW9Ld2z77R7q-14" value="" style="endArrow=block;dashed=1;endFill=0;endSize=12;html=1;rounded=0;exitX=0.5;exitY=1;exitDx=0;exitDy=0;entryX=0.5;entryY=0;entryDx=0;entryDy=0;" edge="1" parent="1" source="a6t6iBsAkW9Ld2z77R7q-12" target="a6t6iBsAkW9Ld2z77R7q-13">
          <mxGeometry width="160" relative="1" as="geometry">
            <mxPoint x="150" y="620" as="sourcePoint" />
            <mxPoint x="310" y="620" as="targetPoint" />
          </mxGeometry>
        </mxCell>
        <mxCell id="a6t6iBsAkW9Ld2z77R7q-15" value="" style="endArrow=diamondThin;endFill=0;endSize=24;html=1;rounded=0;exitX=0.5;exitY=1;exitDx=0;exitDy=0;entryX=0.522;entryY=-0.008;entryDx=0;entryDy=0;entryPerimeter=0;" edge="1" parent="1" source="a6t6iBsAkW9Ld2z77R7q-3" target="a6t6iBsAkW9Ld2z77R7q-12">
          <mxGeometry width="160" relative="1" as="geometry">
            <mxPoint x="365" y="219.29000000000002" as="sourcePoint" />
            <mxPoint x="470" y="219" as="targetPoint" />
          </mxGeometry>
        </mxCell>
        <mxCell id="a6t6iBsAkW9Ld2z77R7q-17" value="" style="rounded=1;whiteSpace=wrap;html=1;fillColor=none;" vertex="1" parent="1">
          <mxGeometry x="40" y="810" width="520" height="270" as="geometry" />
        </mxCell>
        <mxCell id="a6t6iBsAkW9Ld2z77R7q-18" value="&lt;div style=&quot;&quot;&gt;&lt;pre style=&quot;font-family: &amp;quot;JetBrains Mono&amp;quot;, monospace;&quot;&gt;&lt;span style=&quot;background-color: rgb(255, 255, 255);&quot;&gt;ActualCostAllocationService&lt;/span&gt;&lt;/pre&gt;&lt;/div&gt;" style="rounded=1;whiteSpace=wrap;html=1;" vertex="1" parent="1">
          <mxGeometry x="310" y="540" width="220" height="60" as="geometry" />
        </mxCell>
      </root>
    </mxGraphModel>
  </diagram>
</mxfile>
